<?xml version="1.0" encoding="UTF-8"?>
<svg version="1.1" xmlns="http://www.w3.org/2000/svg" width="200" height="200">
<path d="M0 0 C15.65466134 8.8799057 29.98050309 20.15422932 42.52734375 33.03125 C43.08421875 33.54300781 43.64109375 34.05476563 44.21484375 34.58203125 C58.33653304 47.87805725 68.73767767 65.27848958 73.52734375 84.03125 C73.71683594 84.72089844 73.90632812 85.41054687 74.1015625 86.12109375 C75.05018493 90.37684023 75.6367383 94.96666245 73.515625 98.9140625 C71.37294734 101.57793202 69.78878437 102.94410313 66.52734375 104.03125 C46.38111318 105.71410936 27.63676879 99.0490135 8.78125 92.70800781 C-0.42031777 89.94514539 -13.10288836 88.92970701 -21.97265625 93.03125 C-22.62234375 93.4025 -23.27203125 93.77375 -23.94140625 94.15625 C-25.47265625 95.03125 -25.47265625 95.03125 -27.47265625 95.03125 C-27.74078125 95.5675 -28.00890625 96.10375 -28.28515625 96.65625 C-29.17691053 98.43975856 -30.09873709 100.20828198 -31.03515625 101.96875 C-35.26044395 110.97044989 -33.49499841 121.4285361 -32.47265625 131.03125 C-41.05394226 127.4688354 -46.73248393 118.25483064 -50.97265625 110.34375 C-51.2984668 109.73893799 -51.62427734 109.13412598 -51.95996094 108.51098633 C-57.2467888 98.13256682 -58.11398376 86.15926111 -55.8203125 74.80078125 C-51.97829151 63.10982469 -43.40658356 54.78149947 -33.01953125 48.5625 C-19.25167808 41.63634074 -3.62775093 40.38952647 11.52734375 40.03125 C11.85734375 38.71125 12.18734375 37.39125 12.52734375 36.03125 C8.72238321 34.38283387 5.01301313 33.381056 0.9609375 32.515625 C-0.31974609 32.23710693 -1.60042969 31.95858887 -2.91992188 31.67163086 C-3.59192627 31.52660126 -4.26393066 31.38157166 -4.95629883 31.23214722 C-62.22521468 18.81071105 -62.22521468 18.81071105 -75.47265625 1.03125 C-77.00480513 -2.03304776 -76.70204173 -4.5853142 -76.47265625 -7.96875 C-74.42501699 -12.25904179 -72.32100594 -15.21716202 -67.87890625 -17.0234375 C-44.81010733 -23.4255583 -19.71157698 -10.89715975 0 0 Z M45.52734375 60.03125 C44.57713959 62.271085 44.57713959 62.271085 44.52734375 65.03125 C46.5477559 67.96839781 46.5477559 67.96839781 49.52734375 70.03125 C52.23898153 70.45111946 52.23898153 70.45111946 54.52734375 70.03125 C55.40170793 68.29549351 55.40170793 68.29549351 55.52734375 66.03125 C54.05925874 63.21623756 54.05925874 63.21623756 51.52734375 61.03125 C48.38870671 60.14531002 48.38870671 60.14531002 45.52734375 60.03125 Z " fill="#F0993A" transform="translate(106.47265625,52.96875)"/>
<path d="M0 0 C4.48459281 3.50429237 8.77441386 7.18915248 13 11 C13.73476562 11.66128906 14.46953125 12.32257812 15.2265625 13.00390625 C21.53884918 19.01746331 26.78080802 26.04043134 32 33 C32.71470459 33.95108643 32.71470459 33.95108643 33.44384766 34.92138672 C37 39.75590266 37 39.75590266 37 42 C37.66 42 38.32 42 39 42 C40.49926962 44.09956889 41.85646023 46.1728609 43.1875 48.375 C43.56841797 48.97828125 43.94933594 49.5815625 44.34179688 50.203125 C45.29629694 51.76219952 46.15590022 53.37849474 47 55 C46.505 55.99 46.505 55.99 46 57 C43.96166576 55.7260411 41.96147874 54.38938077 40 53 C40 52.34 40 51.68 40 51 C38.99066406 50.64808594 38.99066406 50.64808594 37.9609375 50.2890625 C34.25029897 48.67361301 31.01642556 46.56799831 27.625 44.375 C15.30291608 36.58469062 3.1901488 30.37766655 -10.58984375 25.54296875 C-11.32307861 25.28467285 -12.05631348 25.02637695 -12.81176758 24.76025391 C-14.28351113 24.24892852 -15.76011477 23.7514038 -17.2409668 23.26708984 C-22.52038145 21.46295384 -24.5067662 19.88429027 -27.09375 15.12109375 C-28.82210275 11.07585433 -29.35945156 7.6774406 -28.4375 3.375 C-26.22191565 -0.28553067 -23.18648983 -3.26084251 -19.0703125 -4.65234375 C-12.24281267 -5.79884844 -5.6576615 -3.82950557 0 0 Z " fill="#E78B32" transform="translate(87,13)"/>
</svg>
